<svg xmlns="http://www.w3.org/2000/svg" width="1600" height="880" viewBox="0 0 1600 880" font-family="Segoe UI, Helvetica, Arial, sans-serif">
  <defs>
    <linearGradient id="bg" x1="0" y1="0" x2="1" y2="1">
      <stop offset="0" stop-color="#0b1220"/><stop offset="1" stop-color="#141e33"/>
    </linearGradient>
    <linearGradient id="cardGrad" x1="0" y1="0" x2="0" y2="1">
      <stop offset="0" stop-color="#1b2740"/><stop offset="1" stop-color="#16203a"/>
    </linearGradient>
    <marker id="arr" markerWidth="9" markerHeight="9" refX="7" refY="4.5" orient="auto">
      <path d="M0,0 L9,4.5 L0,9 Z" fill="#64748b"/>
    </marker>
    <marker id="arrG" markerWidth="9" markerHeight="9" refX="7" refY="4.5" orient="auto">
      <path d="M0,0 L9,4.5 L0,9 Z" fill="#34d399"/>
    </marker>
  </defs>
  <rect width="1600" height="880" fill="url(#bg)" rx="16"/>

  <text x="800" y="74" text-anchor="middle" font-size="34" font-weight="700" fill="#f8fafc">einvoice-pipeline — Architecture</text>
  <text x="800" y="106" text-anchor="middle" font-size="16" fill="#94a3b8">Factur-X / EN 16931 e-invoicing engine · full observability · France PDP &amp; Tunisia TTN/El Fatoora</text>
  <line x1="120" y1="132" x2="1480" y2="132" stroke="rgba(255,255,255,0.08)"/>

  
  <g>
    <rect x="68.5" y="200" width="225" height="190" rx="14" fill="url(#cardGrad)" stroke="rgba(255,255,255,0.10)" stroke-width="1"/>
    <rect x="68.5" y="200" width="225" height="4" rx="2" fill="#38bdf8"/>
    
  <g transform="translate(155,230)" stroke="#38bdf8" stroke-width="2.5" fill="none" stroke-linejoin="round" stroke-linecap="round">
    <rect x="4" y="8" width="44" height="30" rx="4"/>
    <line x1="14" y1="48" x2="38" y2="48"/><line x1="26" y1="38" x2="26" y2="48"/>
    <path d="M13 20h18M13 27h12" stroke="#0ea5e9"/>
  </g><text x="181" y="318" text-anchor="middle" font-size="19" font-weight="600" fill="#f1f5f9">Client</text><text x="181" y="342" text-anchor="middle" font-size="14" fill="#94a3b8">ERP / SAP · REST</text><text x="181" y="361" text-anchor="middle" font-size="13" fill="#64748b">JSON invoice request</text>
  </g><line x1="293.5" y1="295" x2="343.5" y2="295" stroke="#64748b" stroke-width="2.5"  marker-end="url(#arr)"/><text x="324.5" y="281" text-anchor="middle" font-size="11.5" fill="#94a3b8">HTTPS</text>
  <g>
    <rect x="355.5" y="200" width="250" height="190" rx="14" fill="url(#cardGrad)" stroke="rgba(255,255,255,0.10)" stroke-width="1"/>
    <rect x="355.5" y="200" width="250" height="4" rx="2" fill="#6DB33F"/>
    <g transform="translate(454.5,230) scale(2.1666666666666665)"><path d="M21.8537 1.4158a10.4504 10.4504 0 0 1-1.284 2.2471A11.9666 11.9666 0 1 0 3.8518 20.7757l.4445.3951a11.9543 11.9543 0 0 0 19.6316-8.2971c.3457-3.0126-.568-6.8649-2.0743-11.458zM5.5805 20.8745a1.0174 1.0174 0 1 1-.1482-1.4323 1.0396 1.0396 0 0 1 .1482 1.4323zm16.1991-3.5806c-2.9385 3.9263-9.2601 2.5928-13.2852 2.7904 0 0-.7161.0494-1.4323.1481 0 0 .2717-.1234.6174-.2469 2.8398-.9877 4.1732-1.1853 5.9018-2.0743 3.2349-1.6545 6.4698-5.2844 7.1118-9.0379-1.2347 3.6053-4.9881 6.7167-8.3959 7.9761-2.3459.8643-6.5685 1.7039-6.5685 1.7039l-.1729-.0988c-2.8645-1.4076-2.9632-7.6304 2.2718-9.6306 2.2966-.889 4.4696-.395 6.9637-.9877 2.6422-.6174 5.7043-2.5929 6.939-5.1857 1.3828 4.1732 3.062 10.643.0493 14.6434z" fill="#6DB33F"/></g><text x="480.5" y="318" text-anchor="middle" font-size="19" font-weight="600" fill="#f1f5f9">API — Spring Boot</text><text x="480.5" y="342" text-anchor="middle" font-size="14" fill="#94a3b8">Java 21 · REST controllers</text><text x="480.5" y="361" text-anchor="middle" font-size="13" fill="#64748b">Swagger / OpenAPI docs</text>
  </g><line x1="605.5" y1="295" x2="655.5" y2="295" stroke="#64748b" stroke-width="2.5"  marker-end="url(#arr)"/><text x="636.5" y="281" text-anchor="middle" font-size="11.5" fill="#94a3b8">invoice</text>
  <g>
    <rect x="667.5" y="200" width="250" height="190" rx="14" fill="url(#cardGrad)" stroke="rgba(255,255,255,0.10)" stroke-width="1"/>
    <rect x="667.5" y="200" width="250" height="4" rx="2" fill="#818cf8"/>
    
  <g transform="translate(766.5,230)" fill="none" stroke="#818cf8" stroke-width="3" stroke-linejoin="round" stroke-linecap="round">
    <path d="M26 4 L46 12 V27 C46 40 37 48 26 52 C15 48 6 40 6 27 V12 Z"/>
    <path d="M17 27 L24 34 L36 20" stroke="#a5b4fc"/>
  </g><text x="792.5" y="318" text-anchor="middle" font-size="19" font-weight="600" fill="#f1f5f9">Validation EN 16931</text><text x="792.5" y="342" text-anchor="middle" font-size="14" fill="#94a3b8">Business rules (BR-*)</text><text x="792.5" y="361" text-anchor="middle" font-size="13" fill="#64748b">semantic + syntax checks</text>
  </g><line x1="917.5" y1="295" x2="967.5" y2="295" stroke="#64748b" stroke-width="2.5"  marker-end="url(#arr)"/><text x="948.5" y="281" text-anchor="middle" font-size="11.5" fill="#94a3b8">validé ✓</text>
  <g>
    <rect x="979.5" y="200" width="265" height="190" rx="14" fill="url(#cardGrad)" stroke="rgba(255,255,255,0.10)" stroke-width="1"/>
    <rect x="979.5" y="200" width="265" height="4" rx="2" fill="#f87171"/>
    
  <g transform="translate(1082,228)">
    <g fill="none" stroke="#f87171" stroke-width="2.5" stroke-linejoin="round" stroke-linecap="round">
      <path d="M8 4 h26 l12 12 v36 h-38 Z"/><path d="M34 4 v12 h12"/>
    </g>
    <text x="27" y="34" text-anchor="middle" font-size="12" font-weight="700" fill="#f87171" font-family="Segoe UI, Arial, sans-serif">PDF</text>
    <text x="27" y="47" text-anchor="middle" font-size="10" font-weight="600" fill="#fca5a5" font-family="Segoe UI, Arial, sans-serif">+ XML</text>
  </g><text x="1112" y="318" text-anchor="middle" font-size="19" font-weight="600" fill="#f1f5f9">Factur-X — Mustang</text><text x="1112" y="342" text-anchor="middle" font-size="14" fill="#94a3b8">PDF/A-3 + CII XML embed</text><text x="1112" y="361" text-anchor="middle" font-size="13" fill="#64748b">France PDP · Tunisia TTN</text>
  </g><line x1="1244.5" y1="295" x2="1294.5" y2="295" stroke="#64748b" stroke-width="2.5"  marker-end="url(#arr)"/><text x="1275.5" y="281" text-anchor="middle" font-size="11.5" fill="#94a3b8">persist</text>
  <g>
    <rect x="1306.5" y="200" width="225" height="190" rx="14" fill="url(#cardGrad)" stroke="rgba(255,255,255,0.10)" stroke-width="1"/>
    <rect x="1306.5" y="200" width="225" height="4" rx="2" fill="#4169E1"/>
    <g transform="translate(1393,230) scale(2.1666666666666665)"><path d="M23.5594 14.7228a.5269.5269 0 0 0-.0563-.1191c-.139-.2632-.4768-.3418-1.0074-.2321-1.6533.3411-2.2935.1312-2.5256-.0191 1.342-2.0482 2.445-4.522 3.0411-6.8297.2714-1.0507.7982-3.5237.1222-4.7316a1.5641 1.5641 0 0 0-.1509-.235C21.6931.9086 19.8007.0248 17.5099.0005c-1.4947-.0158-2.7705.3461-3.1161.4794a9.449 9.449 0 0 0-.5159-.0816 8.044 8.044 0 0 0-1.3114-.1278c-1.1822-.0184-2.2038.2642-3.0498.8406-.8573-.3211-4.7888-1.645-7.2219.0788C.9359 2.1526.3086 3.8733.4302 6.3043c.0409.818.5069 3.334 1.2423 5.7436.4598 1.5065.9387 2.7019 1.4334 3.582.553.9942 1.1259 1.5933 1.7143 1.7895.4474.1491 1.1327.1441 1.8581-.7279.8012-.9635 1.5903-1.8258 1.9446-2.2069.4351.2355.9064.3625 1.39.3772a.0569.0569 0 0 0 .0004.0041 11.0312 11.0312 0 0 0-.2472.3054c-.3389.4302-.4094.5197-1.5002.7443-.3102.064-1.1344.2339-1.1464.8115-.0025.1224.0329.2309.0919.3268.2269.4231.9216.6097 1.015.6331 1.3345.3335 2.5044.092 3.3714-.6787-.017 2.231.0775 4.4174.3454 5.0874.2212.5529.7618 1.9045 2.4692 1.9043.2505 0 .5263-.0291.8296-.0941 1.7819-.3821 2.5557-1.1696 2.855-2.9059.1503-.8707.4016-2.8753.5388-4.1012.0169-.0703.0357-.1207.057-.1362.0007-.0005.0697-.0471.4272.0307a.3673.3673 0 0 0 .0443.0068l.2539.0223.0149.001c.8468.0384 1.9114-.1426 2.5312-.4308.6438-.2988 1.8057-1.0323 1.5951-1.6698zM2.371 11.8765c-.7435-2.4358-1.1779-4.8851-1.2123-5.5719-.1086-2.1714.4171-3.6829 1.5623-4.4927 1.8367-1.2986 4.8398-.5408 6.108-.13-.0032.0032-.0066.0061-.0098.0094-2.0238 2.044-1.9758 5.536-1.9708 5.7495-.0002.0823.0066.1989.0162.3593.0348.5873.0996 1.6804-.0735 2.9184-.1609 1.1504.1937 2.2764.9728 3.0892.0806.0841.1648.1631.2518.2374-.3468.3714-1.1004 1.1926-1.9025 2.1576-.5677.6825-.9597.5517-1.0886.5087-.3919-.1307-.813-.5871-1.2381-1.3223-.4796-.839-.9635-2.0317-1.4155-3.5126zm6.0072 5.0871c-.1711-.0428-.3271-.1132-.4322-.1772.0889-.0394.2374-.0902.4833-.1409 1.2833-.2641 1.4815-.4506 1.9143-1.0002.0992-.126.2116-.2687.3673-.4426a.3549.3549 0 0 0 .0737-.1298c.1708-.1513.2724-.1099.4369-.0417.156.0646.3078.26.3695.4752.0291.1016.0619.2945-.0452.4444-.9043 1.2658-2.2216 1.2494-3.1676 1.0128zm2.094-3.988-.0525.141c-.133.3566-.2567.6881-.3334 1.003-.6674-.0021-1.3168-.2872-1.8105-.8024-.6279-.6551-.9131-1.5664-.7825-2.5004.1828-1.3079.1153-2.4468.079-3.0586-.005-.0857-.0095-.1607-.0122-.2199.2957-.2621 1.6659-.9962 2.6429-.7724.4459.1022.7176.4057.8305.928.5846 2.7038.0774 3.8307-.3302 4.7363-.084.1866-.1633.3629-.2311.5454zm7.3637 4.5725c-.0169.1768-.0358.376-.0618.5959l-.146.4383a.3547.3547 0 0 0-.0182.1077c-.0059.4747-.054.6489-.115.8693-.0634.2292-.1353.4891-.1794 1.0575-.11 1.4143-.8782 2.2267-2.4172 2.5565-1.5155.3251-1.7843-.4968-2.0212-1.2217a6.5824 6.5824 0 0 0-.0769-.2266c-.2154-.5858-.1911-1.4119-.1574-2.5551.0165-.5612-.0249-1.9013-.3302-2.6462.0044-.2932.0106-.5909.019-.8918a.3529.3529 0 0 0-.0153-.1126 1.4927 1.4927 0 0 0-.0439-.208c-.1226-.4283-.4213-.7866-.7797-.9351-.1424-.059-.4038-.1672-.7178-.0869.067-.276.1831-.5875.309-.9249l.0529-.142c.0595-.16.134-.3257.213-.5012.4265-.9476 1.0106-2.2453.3766-5.1772-.2374-1.0981-1.0304-1.6343-2.2324-1.5098-.7207.0746-1.3799.3654-1.7088.5321a5.6716 5.6716 0 0 0-.1958.1041c.0918-1.1064.4386-3.1741 1.7357-4.4823a4.0306 4.0306 0 0 1 .3033-.276.3532.3532 0 0 0 .1447-.0644c.7524-.5706 1.6945-.8506 2.802-.8325.4091.0067.8017.0339 1.1742.081 1.939.3544 3.2439 1.4468 4.0359 2.3827.8143.9623 1.2552 1.9315 1.4312 2.4543-1.3232-.1346-2.2234.1268-2.6797.779-.9926 1.4189.543 4.1729 1.2811 5.4964.1353.2426.2522.4522.2889.5413.2403.5825.5515.9713.7787 1.2552.0696.087.1372.1714.1885.245-.4008.1155-1.1208.3825-1.0552 1.717-.0123.1563-.0423.4469-.0834.8148-.0461.2077-.0702.4603-.0994.7662zm.8905-1.6211c-.0405-.8316.2691-.9185.5967-1.0105a2.8566 2.8566 0 0 0 .135-.0406 1.202 1.202 0 0 0 .1342.103c.5703.3765 1.5823.4213 3.0068.1344-.2016.1769-.5189.3994-.9533.6011-.4098.1903-1.0957.333-1.7473.3636-.7197.0336-1.0859-.0807-1.1721-.151zm.5695-9.2712c-.0059.3508-.0542.6692-.1054 1.0017-.055.3576-.112.7274-.1264 1.1762-.0142.4368.0404.8909.0932 1.3301.1066.887.216 1.8003-.2075 2.7014a3.5272 3.5272 0 0 1-.1876-.3856c-.0527-.1276-.1669-.3326-.3251-.6162-.6156-1.1041-2.0574-3.6896-1.3193-4.7446.3795-.5427 1.3408-.5661 2.1781-.463zm.2284 7.0137a12.3762 12.3762 0 0 0-.0853-.1074l-.0355-.0444c.7262-1.1995.5842-2.3862.4578-3.4385-.0519-.4318-.1009-.8396-.0885-1.2226.0129-.4061.0666-.7543.1185-1.0911.0639-.415.1288-.8443.1109-1.3505.0134-.0531.0188-.1158.0118-.1902-.0457-.4855-.5999-1.938-1.7294-3.253-.6076-.7073-1.4896-1.4972-2.6889-2.0395.5251-.1066 1.2328-.2035 2.0244-.1859 2.0515.0456 3.6746.8135 4.8242 2.2824a.908.908 0 0 1 .0667.1002c.7231 1.3556-.2762 6.2751-2.9867 10.5405zm-8.8166-6.1162c-.025.1794-.3089.4225-.6211.4225a.5821.5821 0 0 1-.0809-.0056c-.1873-.026-.3765-.144-.5059-.3156-.0458-.0605-.1203-.178-.1055-.2844.0055-.0401.0261-.0985.0925-.1488.1182-.0894.3518-.1226.6096-.0867.3163.0441.6426.1938.6113.4186zm7.9305-.4114c.0111.0792-.049.201-.1531.3102-.0683.0717-.212.1961-.4079.2232a.5456.5456 0 0 1-.075.0052c-.2935 0-.5414-.2344-.5607-.3717-.024-.1765.2641-.3106.5611-.352.297-.0414.6111.0088.6356.1851z" fill="#5c85f0"/></g><text x="1419" y="318" text-anchor="middle" font-size="19" font-weight="600" fill="#f1f5f9">PostgreSQL</text><text x="1419" y="342" text-anchor="middle" font-size="14" fill="#94a3b8">invoices · audit trail</text><text x="1419" y="361" text-anchor="middle" font-size="13" fill="#64748b">Flyway migrations</text>
  </g>
  
  <path d="M 480.5 390 C 480.5 460, 450 400, 450 466"
        fill="none" stroke="#34d399" stroke-width="2.2" stroke-dasharray="7,6" marker-end="url(#arrG)" opacity="0.8"/>
  <text x="380.25" y="450" text-anchor="middle" font-size="12.5" fill="#6ee7b7">expose les métriques</text>
  <rect x="280" y="468" width="1040" height="260" rx="18" fill="rgba(52,211,153,0.045)" stroke="rgba(52,211,153,0.25)" stroke-width="1.2" stroke-dasharray="6,5"/>
   <text x="305" y="496" font-size="15" font-weight="700" fill="#34d399" letter-spacing="2">OBSERVABILITÉ</text>
  <g>
    <rect x="325" y="520" width="250" height="160" rx="14" fill="url(#cardGrad)" stroke="rgba(255,255,255,0.10)" stroke-width="1"/>
    <rect x="325" y="520" width="250" height="4" rx="2" fill="#34d399"/>
    
  <g transform="translate(424,546)" fill="none" stroke="#34d399" stroke-width="3" stroke-linecap="round">
    <path d="M6 34 A20 20 0 1 1 46 34"/>
    <line x1="26" y1="34" x2="37" y2="18" stroke="#6ee7b7"/>
    <circle cx="26" cy="34" r="3.5" fill="#34d399" stroke="none"/>
  </g><text x="450" y="624" text-anchor="middle" font-size="19" font-weight="600" fill="#f1f5f9">Micrometer</text><text x="450" y="648" text-anchor="middle" font-size="14" fill="#94a3b8">JVM + business metrics</text><text x="450" y="667" text-anchor="middle" font-size="13" fill="#64748b">/actuator/prometheus</text>
  </g><line x1="575" y1="600" x2="663" y2="600" stroke="#64748b" stroke-width="2.5"  marker-end="url(#arr)"/><text x="625" y="586" text-anchor="middle" font-size="11.5" fill="#94a3b8">scrape 15s</text>
  <g>
    <rect x="675" y="520" width="250" height="160" rx="14" fill="url(#cardGrad)" stroke="rgba(255,255,255,0.10)" stroke-width="1"/>
    <rect x="675" y="520" width="250" height="4" rx="2" fill="#E6522C"/>
    <g transform="translate(774,546) scale(2.1666666666666665)"><path d="M12 0C5.373 0 0 5.372 0 12c0 6.627 5.373 12 12 12s12-5.373 12-12c0-6.628-5.373-12-12-12zm0 22.46c-1.885 0-3.414-1.26-3.414-2.814h6.828c0 1.553-1.528 2.813-3.414 2.813zm5.64-3.745H6.36v-2.046h11.28v2.046zm-.04-3.098H6.391c-.037-.043-.075-.086-.111-.13-1.155-1.401-1.427-2.133-1.69-2.879-.005-.025 1.4.287 2.395.511 0 0 .513.119 1.262.255-.72-.843-1.147-1.915-1.147-3.01 0-2.406 1.845-4.508 1.18-6.207.648.053 1.34 1.367 1.387 3.422.689-.951.977-2.69.977-3.755 0-1.103.727-2.385 1.454-2.429-.648 1.069.168 1.984.894 4.256.272.854.237 2.29.447 3.201.07-1.892.395-4.652 1.595-5.605-.529 1.2.079 2.702.494 3.424.671 1.164 1.078 2.047 1.078 3.716a4.642 4.642 0 01-1.11 2.996c.792-.149 1.34-.283 1.34-.283l2.573-.502s-.374 1.538-1.81 3.019z" fill="#E6522C"/></g><text x="800" y="624" text-anchor="middle" font-size="19" font-weight="600" fill="#f1f5f9">Prometheus</text><text x="800" y="648" text-anchor="middle" font-size="14" fill="#94a3b8">TSDB · alerting rules</text><text x="800" y="667" text-anchor="middle" font-size="13" fill="#64748b">metrics storage</text>
  </g><line x1="925" y1="600" x2="1013" y2="600" stroke="#64748b" stroke-width="2.5"  marker-end="url(#arr)"/><text x="975" y="586" text-anchor="middle" font-size="11.5" fill="#94a3b8">PromQL</text>
  <g>
    <rect x="1025" y="520" width="250" height="160" rx="14" fill="url(#cardGrad)" stroke="rgba(255,255,255,0.10)" stroke-width="1"/>
    <rect x="1025" y="520" width="250" height="4" rx="2" fill="#F46800"/>
    <g transform="translate(1124,546) scale(2.1666666666666665)"><path d="M23.02 10.59a8.578 8.578 0 0 0-.862-3.034 8.911 8.911 0 0 0-1.789-2.445c.337-1.342-.413-2.505-.413-2.505-1.292-.08-2.113.4-2.416.62-.052-.02-.102-.044-.154-.064-.22-.089-.446-.172-.677-.247-.231-.073-.47-.14-.711-.197a9.867 9.867 0 0 0-.875-.161C14.557.753 12.94 0 12.94 0c-1.804 1.145-2.147 2.744-2.147 2.744l-.018.093c-.098.029-.2.057-.298.088-.138.042-.275.094-.413.143-.138.055-.275.107-.41.166a8.869 8.869 0 0 0-1.557.87l-.063-.029c-2.497-.955-4.716.195-4.716.195-.203 2.658.996 4.33 1.235 4.636a11.608 11.608 0 0 0-.607 2.635C1.636 12.677.953 15.014.953 15.014c1.926 2.214 4.171 2.351 4.171 2.351.003-.002.006-.002.006-.005.285.509.615.994.986 1.446.156.19.32.371.488.548-.704 2.009.099 3.68.099 3.68 2.144.08 3.553-.937 3.849-1.173a9.784 9.784 0 0 0 3.164.501h.08l.055-.003.107-.002.103-.005.003.002c1.01 1.44 2.788 1.646 2.788 1.646 1.264-1.332 1.337-2.653 1.337-2.94v-.058c0-.02-.003-.039-.003-.06.265-.187.52-.387.758-.6a7.875 7.875 0 0 0 1.415-1.7c1.43.083 2.437-.885 2.437-.885-.236-1.49-1.085-2.216-1.264-2.354l-.018-.013-.016-.013a.217.217 0 0 1-.031-.02c.008-.092.016-.18.02-.27.011-.162.016-.323.016-.48v-.253l-.005-.098-.008-.135a1.891 1.891 0 0 0-.01-.13c-.003-.042-.008-.083-.013-.125l-.016-.124-.018-.122a6.215 6.215 0 0 0-2.032-3.73 6.015 6.015 0 0 0-3.222-1.46 6.292 6.292 0 0 0-.85-.048l-.107.002h-.063l-.044.003-.104.008a4.777 4.777 0 0 0-3.335 1.695c-.332.4-.592.84-.768 1.297a4.594 4.594 0 0 0-.312 1.817l.003.091c.005.055.007.11.013.164a3.615 3.615 0 0 0 .698 1.82 3.53 3.53 0 0 0 1.827 1.282c.33.098.66.14.971.137.039 0 .078 0 .114-.002l.063-.003c.02 0 .041-.003.062-.003.034-.002.065-.007.099-.01.007 0 .018-.003.028-.003l.031-.005.06-.008a1.18 1.18 0 0 0 .112-.02c.036-.008.072-.013.109-.024a2.634 2.634 0 0 0 .914-.415c.028-.02.056-.041.085-.065a.248.248 0 0 0 .039-.35.244.244 0 0 0-.309-.06l-.078.042c-.09.044-.184.083-.283.116a2.476 2.476 0 0 1-.475.096c-.028.003-.054.006-.083.006l-.083.002c-.026 0-.054 0-.08-.002l-.102-.006h-.012l-.024.006c-.016-.003-.031-.003-.044-.006-.031-.002-.06-.007-.091-.01a2.59 2.59 0 0 1-.724-.213 2.557 2.557 0 0 1-.667-.438 2.52 2.52 0 0 1-.805-1.475 2.306 2.306 0 0 1-.029-.444l.006-.122v-.023l.002-.031c.003-.021.003-.04.005-.06a3.163 3.163 0 0 1 1.352-2.29 3.12 3.12 0 0 1 .937-.43 2.946 2.946 0 0 1 .776-.101h.06l.07.002.045.003h.026l.07.005a4.041 4.041 0 0 1 1.635.49 3.94 3.94 0 0 1 1.602 1.662 3.77 3.77 0 0 1 .397 1.414l.005.076.003.075c.002.026.002.05.002.075 0 .024.003.052 0 .07v.065l-.002.073-.008.174a6.195 6.195 0 0 1-.08.639 5.1 5.1 0 0 1-.267.927 5.31 5.31 0 0 1-.624 1.13 5.052 5.052 0 0 1-3.237 2.014 4.82 4.82 0 0 1-.649.066l-.039.003h-.287a6.607 6.607 0 0 1-1.716-.265 6.776 6.776 0 0 1-3.4-2.274 6.75 6.75 0 0 1-.746-1.15 6.616 6.616 0 0 1-.714-2.596l-.005-.083-.002-.02v-.056l-.003-.073v-.096l-.003-.104v-.07l.003-.163c.008-.22.026-.45.054-.678a8.707 8.707 0 0 1 .28-1.355c.128-.444.286-.872.473-1.277a7.04 7.04 0 0 1 1.456-2.1 5.925 5.925 0 0 1 .953-.763c.169-.111.343-.213.524-.306.089-.05.182-.091.273-.135.047-.02.093-.042.138-.062a7.177 7.177 0 0 1 .714-.267l.145-.045c.049-.015.098-.026.148-.041.098-.029.197-.052.296-.076.049-.013.1-.02.15-.033l.15-.032.151-.028.076-.013.075-.01.153-.024c.057-.01.114-.013.171-.023l.169-.021c.036-.003.073-.008.106-.01l.073-.008.036-.003.042-.002c.057-.003.114-.008.171-.01l.086-.006h.023l.037-.003.145-.007a7.999 7.999 0 0 1 1.708.125 7.917 7.917 0 0 1 2.048.68 8.253 8.253 0 0 1 1.672 1.09l.09.077.089.078c.06.052.114.107.171.159.057.052.112.106.166.16.052.055.107.107.159.164a8.671 8.671 0 0 1 1.41 1.978c.012.026.028.052.04.078l.04.078.075.156c.023.051.05.1.07.153l.065.15a8.848 8.848 0 0 1 .45 1.34.19.19 0 0 0 .201.142.186.186 0 0 0 .172-.184c.01-.246.002-.532-.024-.856z" fill="#F46800"/></g><text x="1150" y="624" text-anchor="middle" font-size="19" font-weight="600" fill="#f1f5f9">Grafana</text><text x="1150" y="648" text-anchor="middle" font-size="14" fill="#94a3b8">auto-provisioned dashboard</text><text x="1150" y="667" text-anchor="middle" font-size="13" fill="#64748b">latency · throughput · errors</text>
  </g>
  <text x="800" y="760" text-anchor="middle" font-size="13" font-weight="700" fill="#64748b" letter-spacing="2.5">PLATEFORME &amp; CI/CD</text>
  <g>
    <rect x="150" y="776" width="252" height="58" rx="29" fill="rgba(255,255,255,0.04)" stroke="rgba(255,255,255,0.10)"/>
    <g transform="translate(170,791) scale(1.1666666666666667)"><path d="M11.915 0 11.7.215C9.515 2.4 7.47 6.39 6.046 10.483c-1.064 1.024-3.633 2.81-3.711 3.551-.093.87 1.746 2.611 1.55 3.235-.198.625-1.304 1.408-1.014 1.939.1.188.823.011 1.277-.491a13.389 13.389 0 0 0-.017 2.14c.076.906.27 1.668.643 2.232.372.563.956.911 1.667.911.397 0 .727-.114 1.024-.264.298-.149.571-.33.91-.5.68-.34 1.634-.666 3.53-.604 1.903.062 2.872.39 3.559.704.687.314 1.15.664 1.925.664.767 0 1.395-.336 1.807-.9.412-.563.631-1.33.72-2.24.06-.623.055-1.32 0-2.066.454.45 1.117.604 1.213.424.29-.53-.816-1.314-1.013-1.937-.198-.624 1.642-2.366 1.549-3.236-.08-.748-2.707-2.568-3.748-3.586C16.428 6.374 14.308 2.394 12.13.215zm.175 6.038a2.95 2.95 0 0 1 2.943 2.942 2.95 2.95 0 0 1-2.943 2.943A2.95 2.95 0 0 1 9.148 8.98a2.95 2.95 0 0 1 2.942-2.942zM8.685 7.983a3.515 3.515 0 0 0-.145.997c0 1.951 1.6 3.55 3.55 3.55 1.95 0 3.55-1.598 3.55-3.55 0-.329-.046-.648-.132-.951.334.095.64.208.915.336a42.699 42.699 0 0 1 2.042 5.829c.678 2.545 1.01 4.92.846 6.607-.082.844-.29 1.51-.606 1.94-.315.431-.713.651-1.315.651-.593 0-.932-.27-1.673-.61-.741-.338-1.825-.694-3.792-.758-1.974-.064-3.073.293-3.821.669-.375.188-.659.373-.911.5s-.466.2-.752.2c-.53 0-.876-.209-1.16-.64-.285-.43-.474-1.101-.545-1.948-.141-1.693.176-4.069.823-6.614a43.155 43.155 0 0 1 1.934-5.783c.348-.167.749-.31 1.192-.425zm-3.382 4.362a.216.216 0 0 1 .13.031c-.166.56-.323 1.116-.463 1.665a33.849 33.849 0 0 0-.547 2.555 3.9 3.9 0 0 0-.2-.39c-.58-1.012-.914-1.642-1.16-2.08.315-.24 1.679-1.755 2.24-1.781zm13.394.01c.562.027 1.926 1.543 2.24 1.783-.246.438-.58 1.068-1.16 2.08a4.428 4.428 0 0 0-.163.309 32.354 32.354 0 0 0-.562-2.49 40.579 40.579 0 0 0-.482-1.652.216.216 0 0 1 .127-.03z" fill="#e2e8f0"/></g>
    <text x="212" y="812" font-size="15" font-weight="600" fill="#cbd5e1">Java 21</text>
  </g>
  <g>
    <rect x="432" y="776" width="252" height="58" rx="29" fill="rgba(255,255,255,0.04)" stroke="rgba(255,255,255,0.10)"/>
    <g transform="translate(452,791) scale(1.1666666666666667)"><path d="M13.983 11.078h2.119a.186.186 0 00.186-.185V9.006a.186.186 0 00-.186-.186h-2.119a.185.185 0 00-.185.185v1.888c0 .102.083.185.185.185m-2.954-5.43h2.118a.186.186 0 00.186-.186V3.574a.186.186 0 00-.186-.185h-2.118a.185.185 0 00-.185.185v1.888c0 .102.082.185.185.185m0 2.716h2.118a.187.187 0 00.186-.186V6.29a.186.186 0 00-.186-.185h-2.118a.185.185 0 00-.185.185v1.887c0 .102.082.185.185.186m-2.93 0h2.12a.186.186 0 00.184-.186V6.29a.185.185 0 00-.185-.185H8.1a.185.185 0 00-.185.185v1.887c0 .102.083.185.185.186m-2.964 0h2.119a.186.186 0 00.185-.186V6.29a.185.185 0 00-.185-.185H5.136a.186.186 0 00-.186.185v1.887c0 .102.084.185.186.186m5.893 2.715h2.118a.186.186 0 00.186-.185V9.006a.186.186 0 00-.186-.186h-2.118a.185.185 0 00-.185.185v1.888c0 .102.082.185.185.185m-2.93 0h2.12a.185.185 0 00.184-.185V9.006a.185.185 0 00-.184-.186h-2.12a.185.185 0 00-.184.185v1.888c0 .102.083.185.185.185m-2.964 0h2.119a.185.185 0 00.185-.185V9.006a.185.185 0 00-.184-.186h-2.12a.186.186 0 00-.186.186v1.887c0 .102.084.185.186.185m-2.92 0h2.12a.185.185 0 00.184-.185V9.006a.185.185 0 00-.184-.186h-2.12a.185.185 0 00-.184.185v1.888c0 .102.082.185.185.185M23.763 9.89c-.065-.051-.672-.51-1.954-.51-.338.001-.676.03-1.01.087-.248-1.7-1.653-2.53-1.716-2.566l-.344-.199-.226.327c-.284.438-.49.922-.612 1.43-.23.97-.09 1.882.403 2.661-.595.332-1.55.413-1.744.42H.751a.751.751 0 00-.75.748 11.376 11.376 0 00.692 4.062c.545 1.428 1.355 2.48 2.41 3.124 1.18.723 3.1 1.137 5.275 1.137.983.003 1.963-.086 2.93-.266a12.248 12.248 0 003.823-1.389c.98-.567 1.86-1.288 2.61-2.136 1.252-1.418 1.998-2.997 2.553-4.4h.221c1.372 0 2.215-.549 2.68-1.009.309-.293.55-.65.707-1.046l.098-.288Z" fill="#2496ED"/></g>
    <text x="494" y="812" font-size="15" font-weight="600" fill="#cbd5e1">Docker Compose</text>
  </g>
  <g>
    <rect x="714" y="776" width="252" height="58" rx="29" fill="rgba(255,255,255,0.04)" stroke="rgba(255,255,255,0.10)"/>
    <g transform="translate(734,791) scale(1.1666666666666667)"><path d="M10.984 13.836a.5.5 0 0 1-.353-.146l-.745-.743a.5.5 0 1 1 .706-.708l.392.391 1.181-1.18a.5.5 0 0 1 .708.707l-1.535 1.533a.504.504 0 0 1-.354.146zm9.353-.147l1.534-1.532a.5.5 0 0 0-.707-.707l-1.181 1.18-.392-.391a.5.5 0 1 0-.706.708l.746.743a.497.497 0 0 0 .706-.001zM4.527 7.452l2.557-1.585A1 1 0 0 0 7.09 4.17L4.533 2.56A1 1 0 0 0 3 3.406v3.196a1.001 1.001 0 0 0 1.527.85zm2.03-2.436L4 6.602V3.406l2.557 1.61zM24 12.5c0 1.93-1.57 3.5-3.5 3.5a3.503 3.503 0 0 1-3.46-3h-2.08a3.503 3.503 0 0 1-3.46 3 3.502 3.502 0 0 1-3.46-3h-.558c-.972 0-1.85-.399-2.482-1.042V17c0 1.654 1.346 3 3 3h.04c.244-1.693 1.7-3 3.46-3 1.93 0 3.5 1.57 3.5 3.5S13.43 24 11.5 24a3.502 3.502 0 0 1-3.46-3H8c-2.206 0-4-1.794-4-4V9.899A5.008 5.008 0 0 1 0 5c0-2.757 2.243-5 5-5s5 2.243 5 5a5.005 5.005 0 0 1-4.952 4.998A2.482 2.482 0 0 0 7.482 12h.558c.244-1.693 1.7-3 3.46-3a3.502 3.502 0 0 1 3.46 3h2.08a3.503 3.503 0 0 1 3.46-3c1.93 0 3.5 1.57 3.5 3.5zm-15 8c0 1.378 1.122 2.5 2.5 2.5s2.5-1.122 2.5-2.5-1.122-2.5-2.5-2.5S9 19.122 9 20.5zM5 9c2.206 0 4-1.794 4-4S7.206 1 5 1 1 2.794 1 5s1.794 4 4 4zm9 3.5c0-1.378-1.122-2.5-2.5-2.5S9 11.122 9 12.5s1.122 2.5 2.5 2.5 2.5-1.122 2.5-2.5zm9 0c0-1.378-1.122-2.5-2.5-2.5S18 11.122 18 12.5s1.122 2.5 2.5 2.5 2.5-1.122 2.5-2.5zm-13 8a.5.5 0 1 0 1 0 .5.5 0 0 0-1 0zm2 0a.5.5 0 1 0 1 0 .5.5 0 0 0-1 0zm12 0c0 1.93-1.57 3.5-3.5 3.5a3.503 3.503 0 0 1-3.46-3.002c-.007.001-.013.005-.021.005l-.506.017h-.017a.5.5 0 0 1-.016-.999l.506-.017c.018-.002.035.006.052.007A3.503 3.503 0 0 1 20.5 17c1.93 0 3.5 1.57 3.5 3.5zm-1 0c0-1.378-1.122-2.5-2.5-2.5S18 19.122 18 20.5s1.122 2.5 2.5 2.5 2.5-1.122 2.5-2.5z" fill="#2088FF"/></g>
    <text x="776" y="812" font-size="15" font-weight="600" fill="#cbd5e1">GitHub Actions CI</text>
  </g>
  <g>
    <rect x="996" y="776" width="252" height="58" rx="29" fill="rgba(255,255,255,0.04)" stroke="rgba(255,255,255,0.10)"/>
    <g transform="translate(1016,791) scale(1.1666666666666667)"><path d="M12 0C5.383 0 0 5.383 0 12s5.383 12 12 12c6.616 0 12-5.383 12-12S18.616 0 12 0zm0 1.144c5.995 0 10.856 4.86 10.856 10.856 0 5.995-4.86 10.856-10.856 10.856-5.996 0-10.856-4.86-10.856-10.856C1.144 6.004 6.004 1.144 12 1.144zM8.37 5.868a6.707 6.707 0 0 0-.423.005c-.983.056-1.573.517-1.735 1.472-.115.665-.096 1.348-.143 2.017-.013.35-.05.697-.115 1.038-.134.609-.397.798-1.016.83a2.65 2.65 0 0 0-.244.042v1.463c1.126.055 1.278.452 1.37 1.629.033.429-.013.858.015 1.287.018.406.073.808.156 1.2.259 1.075 1.307 1.435 2.575 1.218v-1.283c-.203 0-.383.005-.558 0-.43-.013-.591-.12-.632-.535-.056-.535-.042-1.08-.075-1.62-.064-1.001-.175-1.988-1.153-2.625.503-.37.868-.812.983-1.398.083-.41.134-.821.166-1.237.028-.415-.023-.84.014-1.25.06-.665.102-.937.9-.91.12 0 .235-.017.369-.027v-1.31c-.16 0-.31-.004-.454-.006zm7.593.009a4.247 4.247 0 0 0-.813.06v1.274c.245 0 .434 0 .623.005.328.004.577.13.61.494.032.332.031.669.064 1.006.065.669.101 1.347.217 2.007.102.544.475.95.941 1.283-.817.549-1.057 1.333-1.098 2.215-.023.604-.037 1.213-.069 1.822-.028.554-.222.734-.78.748-.157.004-.31.018-.484.028v1.305c.327 0 .627.019.927 0 .932-.055 1.495-.507 1.68-1.412.078-.498.124-1 .138-1.504.032-.461.028-.927.074-1.384.069-.715.397-1.01 1.112-1.057a.972.972 0 0 0 .199-.046v-1.463c-.12-.014-.204-.027-.291-.032-.536-.023-.804-.203-.937-.71a5.146 5.146 0 0 1-.152-.993c-.037-.618-.033-1.241-.074-1.86-.08-1.192-.794-1.753-1.887-1.786zm-6.89 5.28a.844.844 0 0 0-.083 1.684h.055a.83.83 0 0 0 .877-.78v-.046a.845.845 0 0 0-.83-.858zm2.911 0a.808.808 0 0 0-.834.78c0 .027 0 .05.004.078 0 .503.342.826.859.826.507 0 .826-.332.826-.853-.005-.503-.342-.836-.855-.831zm2.963 0a.861.861 0 0 0-.876.835c0 .47.378.849.849.849h.009c.425.074.853-.337.881-.83.023-.457-.392-.854-.863-.854z" fill="#85EA2D"/></g>
    <text x="1058" y="812" font-size="15" font-weight="600" fill="#cbd5e1">Swagger / OpenAPI</text>
  </g>
</svg>