<svg xmlns="http://www.w3.org/2000/svg" width="1480" height="650" viewBox="0 0 1480 650" font-family="'Segoe UI', system-ui, -apple-system, Helvetica, Arial, sans-serif" role="img" aria-label="einvoice-pipeline architecture diagram">
  <defs>
    <linearGradient id="canvas" x1="0" y1="0" x2="0" y2="1">
      <stop offset="0" stop-color="#ffffff"/>
      <stop offset="1" stop-color="#eceff4"/>
    </linearGradient>
    <linearGradient id="appGrad" x1="0" y1="0" x2="0" y2="1">
      <stop offset="0" stop-color="#ffffff"/>
      <stop offset="1" stop-color="#f4f7ff"/>
    </linearGradient>
    <linearGradient id="tileHi" x1="0" y1="0" x2="0" y2="1">
      <stop offset="0" stop-color="#ffffff" stop-opacity="0.24"/>
      <stop offset="0.55" stop-color="#ffffff" stop-opacity="0"/>
    </linearGradient>
    <radialGradient id="statusGlow" cx="0.5" cy="0.5" r="0.5">
      <stop offset="0" stop-color="#22c55e" stop-opacity="0.30"/>
      <stop offset="1" stop-color="#22c55e" stop-opacity="0"/>
    </radialGradient>
    <filter id="cardShadow" x="-20%" y="-20%" width="140%" height="140%">
      <feDropShadow dx="0" dy="2" stdDeviation="5" flood-color="#1e293b" flood-opacity="0.10"/>
    </filter>
    <filter id="engineShadow" x="-20%" y="-20%" width="140%" height="140%">
      <feDropShadow dx="0" dy="4" stdDeviation="9" flood-color="#1e293b" flood-opacity="0.13"/>
    </filter>
    <filter id="tabShadow" x="-40%" y="-40%" width="180%" height="180%">
      <feDropShadow dx="0" dy="2" stdDeviation="4" flood-color="#2496ed" flood-opacity="0.35"/>
    </filter>
    <marker id="arrow" viewBox="0 0 10 10" refX="8.5" refY="5" markerWidth="7" markerHeight="7" orient="auto-start-reverse">
      <path d="M0 1 L9 5 L0 9 z" fill="#8b98a9"/>
    </marker>
  </defs>

  <!-- backdrop -->
  <rect x="1" y="1" width="1478" height="648" rx="22" fill="url(#canvas)" stroke="#dde3ea" stroke-width="1.5"/>

  <!-- ===== header ===== -->
  <text x="52" y="56" font-size="29" font-weight="700" fill="#0f172a" letter-spacing="-0.4">einvoice-pipeline</text>
  <rect x="53" y="66" width="58" height="4" rx="2" fill="#6366f1"/>
  <text x="52" y="90" font-size="14.5" fill="#64748b">Factur-X / EN 16931 generation &amp; validation engine — full observability stack</text>

  <!-- header chips -->
  <rect x="1233" y="40" width="128" height="27" rx="13.5" fill="#e9f7ee" stroke="#c9ecd6" stroke-width="1"/>
  <circle cx="1252" cy="53.5" r="4" fill="#6db33f"/>
  <text x="1264" y="58" font-size="12.5" font-weight="600" fill="#3f8f2f">Spring Boot 3.5</text>
  <rect x="1369" y="40" width="62" height="27" rx="13.5" fill="#eef1fe" stroke="#d6ddfb" stroke-width="1"/>
  <text x="1400" y="58" font-size="12.5" font-weight="600" fill="#4f46e5" text-anchor="middle">Java 21</text>

  <!-- ===== section label ===== -->
  <circle cx="56" cy="146" r="3.5" fill="#6366f1"/>
  <text x="68" y="151" font-size="12" font-weight="700" letter-spacing="2.2" fill="#8a97a8">DATA SOURCES</text>

  <!-- Web form -->
  <g filter="url(#cardShadow)"><rect x="52" y="174" width="244" height="92" rx="15" fill="#ffffff" stroke="#e6eaf0" stroke-width="1.2"/></g>
  <g transform="translate(70,194)">
    <rect width="52" height="52" rx="13" fill="#6366f1"/>
    <rect width="52" height="52" rx="13" fill="url(#tileHi)"/>
    <rect x="12" y="14" width="28" height="24" rx="3" fill="none" stroke="#fff" stroke-width="2.6"/>
    <line x1="12" y1="22" x2="40" y2="22" stroke="#fff" stroke-width="2.6"/>
    <circle cx="16.5" cy="18" r="1.4" fill="#fff"/><circle cx="21" cy="18" r="1.4" fill="#fff"/>
    <line x1="18" y1="29" x2="34" y2="29" stroke="#fff" stroke-width="2" opacity="0.9"/>
    <line x1="18" y1="33.5" x2="30" y2="33.5" stroke="#fff" stroke-width="2" opacity="0.9"/>
  </g>
  <text x="136" y="214" font-size="16.5" font-weight="600" fill="#0f172a">Web form</text>
  <text x="136" y="235" font-size="12.5" fill="#64748b">no-ERP case</text>

  <!-- CSV -->
  <g filter="url(#cardShadow)"><rect x="52" y="294" width="244" height="92" rx="15" fill="#ffffff" stroke="#e6eaf0" stroke-width="1.2"/></g>
  <g transform="translate(70,314)">
    <rect width="52" height="52" rx="13" fill="#0ea5e9"/>
    <rect width="52" height="52" rx="13" fill="url(#tileHi)"/>
    <path d="M16 12 h13 l7 7 v20 a2 2 0 0 1 -2 2 h-16 a2 2 0 0 1 -2 -2 v-25 a2 2 0 0 1 2 -2 z" fill="none" stroke="#fff" stroke-width="2.4"/>
    <path d="M29 12 v7 h7" fill="none" stroke="#fff" stroke-width="2.4"/>
    <line x1="19" y1="27" x2="33" y2="27" stroke="#fff" stroke-width="2"/>
    <line x1="19" y1="32" x2="33" y2="32" stroke="#fff" stroke-width="2"/>
    <line x1="19" y1="37" x2="28" y2="37" stroke="#fff" stroke-width="2"/>
  </g>
  <text x="136" y="334" font-size="16.5" font-weight="600" fill="#0f172a">CSV import</text>
  <text x="136" y="355" font-size="12.5" fill="#64748b">generic ERP export</text>

  <!-- ERP gateway (future) -->
  <g filter="url(#cardShadow)"><rect x="52" y="414" width="244" height="104" rx="15" fill="#ffffff" stroke="#d5dbe4" stroke-width="1.2" stroke-dasharray="7 5"/></g>
  <g transform="translate(70,439)">
    <rect width="52" height="52" rx="13" fill="#475569"/>
    <rect width="52" height="52" rx="13" fill="url(#tileHi)"/>
    <rect x="15" y="13" width="22" height="27" rx="2" fill="#fff"/>
    <g fill="#475569">
      <rect x="18.5" y="17" width="4" height="4"/><rect x="24" y="17" width="4" height="4"/><rect x="29.5" y="17" width="4" height="4"/>
      <rect x="18.5" y="24" width="4" height="4"/><rect x="24" y="24" width="4" height="4"/><rect x="29.5" y="24" width="4" height="4"/>
      <rect x="23" y="32" width="6" height="8" rx="0.5"/>
    </g>
  </g>
  <text x="136" y="452" font-size="16.5" font-weight="600" fill="#0f172a">ERP gateway</text>
  <text x="136" y="473" font-size="12" fill="#64748b">SAP · Oracle · Dynamics · Sage</text>
  <text x="136" y="491" font-size="11" fill="#98a3b3" font-style="italic">OData / RFC / REST — future</text>

  <!-- ===== input bus ===== -->
  <g stroke="#8b98a9" stroke-width="2.2" fill="none">
    <path d="M296 220 H 360"/>
    <path d="M296 340 H 360"/>
    <path d="M296 466 H 360" stroke-dasharray="6 5"/>
    <path d="M360 220 V 466"/>
    <path d="M360 388 H 396" marker-end="url(#arrow)"/>
  </g>
  <circle cx="360" cy="388" r="3.4" fill="#8b98a9"/>

  <!-- ===== Docker boundary ===== -->
  <rect x="384" y="202" width="1090" height="372" rx="20" fill="#2496ed" fill-opacity="0.035" stroke="#2496ed" stroke-width="1.6" stroke-dasharray="9 7" opacity="0.9"/>
  <g filter="url(#tabShadow)"><rect x="402" y="185" width="214" height="34" rx="17" fill="#2496ed"/></g>
  <g fill="#fff" transform="translate(416,194)">
    <rect x="5" y="7.5" width="3.2" height="3.2" rx="0.5"/><rect x="8.8" y="7.5" width="3.2" height="3.2" rx="0.5"/><rect x="12.6" y="7.5" width="3.2" height="3.2" rx="0.5"/>
    <rect x="8.8" y="3.7" width="3.2" height="3.2" rx="0.5"/><rect x="12.6" y="3.7" width="3.2" height="3.2" rx="0.5"/>
    <path d="M1 11.5 h18 c-0.3 4 -3.6 6 -8 6 c-6 0 -8.6 -3.4 -10 -5.4 c-0.4 -0.6 0 -0.6 0 -0.6 z"/>
  </g>
  <text x="446" y="207" font-size="14" font-weight="700" fill="#ffffff">Docker Compose</text>

  <!-- zone labels -->
  <circle cx="904" cy="226" r="3" fill="#336791"/>
  <text x="914" y="230" font-size="11" font-weight="700" letter-spacing="1.6" fill="#9aa6b6">STORAGE</text>
  <circle cx="904" cy="420" r="3" fill="#e6522c"/>
  <text x="914" y="424" font-size="11" font-weight="700" letter-spacing="1.6" fill="#9aa6b6">OBSERVABILITY</text>

  <!-- ===== Spring Boot engine ===== -->
  <g filter="url(#engineShadow)"><rect x="400" y="240" width="372" height="300" rx="18" fill="url(#appGrad)" stroke="#c7d2fe" stroke-width="1.8"/></g>
  <g transform="translate(428,266)">
    <rect width="54" height="54" rx="13" fill="#6db33f"/>
    <rect width="54" height="54" rx="13" fill="url(#tileHi)"/>
    <path d="M17 40 C 13 24 28 13 44 15 C 43 30 32 42 17 40 Z" fill="#fff"/>
    <path d="M19 38 C 28 31 35 25 40 18" fill="none" stroke="#6db33f" stroke-width="2.8" stroke-linecap="round"/>
  </g>
  <text x="496" y="288" font-size="20" font-weight="700" fill="#0f172a">Spring Boot Application</text>
  <text x="496" y="309" font-size="12.5" fill="#64748b">InvoiceProcessingService · Java 21</text>

  <rect x="428" y="340" width="316" height="72" rx="13" fill="#ffffff" stroke="#e6eaf0" stroke-width="1.2"/>
  <circle cx="456" cy="370" r="13" fill="#dcfce7"/>
  <path d="M450 370 l4.5 4.5 l7.5 -8.5" fill="none" stroke="#16a34a" stroke-width="2.8" stroke-linecap="round" stroke-linejoin="round"/>
  <text x="480" y="367" font-size="15" font-weight="600" fill="#0f172a">EN 16931 validation</text>
  <text x="480" y="387" font-size="12" fill="#64748b">business rules BR-CO-13 / 14 / 15 · RFC 7807</text>

  <rect x="428" y="424" width="316" height="72" rx="13" fill="#ffffff" stroke="#e6eaf0" stroke-width="1.2"/>
  <g transform="translate(443,441)">
    <rect width="26" height="26" rx="7" fill="#eef2ff"/>
    <path d="M8 6 h7 l4.5 4.5 v8.5 a1.5 1.5 0 0 1 -1.5 1.5 h-10 a1.5 1.5 0 0 1 -1.5 -1.5 z" fill="none" stroke="#6366f1" stroke-width="1.8"/>
    <path d="M15 6 v4.5 h4.5" fill="none" stroke="#6366f1" stroke-width="1.8"/>
  </g>
  <text x="480" y="451" font-size="15" font-weight="600" fill="#0f172a">Factur-X generation</text>
  <text x="480" y="471" font-size="12" fill="#64748b">PDF/A-3 + embedded CII XML · Mustang</text>

  <!-- ===== PostgreSQL ===== -->
  <g filter="url(#cardShadow)"><rect x="900" y="240" width="272" height="104" rx="15" fill="#ffffff" stroke="#e6eaf0" stroke-width="1.2"/></g>
  <circle cx="1150" cy="262" r="8" fill="url(#statusGlow)"/><circle cx="1150" cy="262" r="3.6" fill="#22c55e"/>
  <g transform="translate(922,266)">
    <rect width="52" height="52" rx="13" fill="#336791"/>
    <rect width="52" height="52" rx="13" fill="url(#tileHi)"/>
    <g fill="#fff">
      <ellipse cx="14" cy="24" rx="6.4" ry="8.4"/>
      <ellipse cx="38" cy="24" rx="6.4" ry="8.4"/>
      <path d="M26 11 c8 0 13.5 6 13.5 14.5 c0 6 -3 10.2 -7 12.6 c-2 1.2 -4.2 1.8 -6.5 1.8 s-4.5 -0.6 -6.5 -1.8 c-4 -2.4 -7 -6.6 -7 -12.6 c0 -8.5 5.5 -14.5 13.5 -14.5 z"/>
      <path d="M26 30 c1.9 0 3 1.4 3 3.4 l0 6.4 c0 2.4 -6 2.4 -6 0 l0 -6.4 c0 -2 1.1 -3.4 3 -3.4 z"/>
    </g>
    <circle cx="20.5" cy="24" r="1.9" fill="#336791"/><circle cx="31.5" cy="24" r="1.9" fill="#336791"/>
  </g>
  <text x="990" y="286" font-size="17.5" font-weight="700" fill="#0f172a">PostgreSQL</text>
  <text x="990" y="307" font-size="12.5" fill="#64748b">audit-trail persistence</text>
  <text x="990" y="326" font-size="11.5" fill="#98a3b3">Flyway migrations · JPA</text>

  <!-- ===== Prometheus ===== -->
  <g filter="url(#cardShadow)"><rect x="900" y="434" width="272" height="104" rx="15" fill="#ffffff" stroke="#e6eaf0" stroke-width="1.2"/></g>
  <circle cx="1150" cy="456" r="8" fill="url(#statusGlow)"/><circle cx="1150" cy="456" r="3.6" fill="#22c55e"/>
  <g transform="translate(922,460)">
    <rect width="52" height="52" rx="13" fill="#e6522c"/>
    <rect width="52" height="52" rx="13" fill="url(#tileHi)"/>
    <path d="M26 9 c6 7 9 10 9 17 c0 7 -4 12 -9 12 c-5 0 -9 -5 -9 -12 c0 -4 1 -6 4 -9 c-0.3 4 1 5 2 5 c-2 -6 1 -10 3 -13 z" fill="#fff"/>
    <rect x="15" y="39" width="22" height="4" rx="2" fill="#fff"/>
  </g>
  <text x="990" y="480" font-size="17.5" font-weight="700" fill="#0f172a">Prometheus</text>
  <text x="990" y="501" font-size="12.5" fill="#64748b">metrics scraping</text>
  <text x="990" y="520" font-size="11.5" fill="#98a3b3">Micrometer · /actuator/prometheus</text>

  <!-- ===== Grafana ===== -->
  <g filter="url(#cardShadow)"><rect x="1198" y="434" width="268" height="104" rx="15" fill="#ffffff" stroke="#e6eaf0" stroke-width="1.2"/></g>
  <circle cx="1444" cy="456" r="8" fill="url(#statusGlow)"/><circle cx="1444" cy="456" r="3.6" fill="#22c55e"/>
  <g transform="translate(1220,460)">
    <rect width="52" height="52" rx="13" fill="#f46800"/>
    <rect width="52" height="52" rx="13" fill="url(#tileHi)"/>
    <circle cx="26" cy="27" r="12" fill="none" stroke="#fff" stroke-width="3"/>
    <path d="M26 16 c3 3 5 6 5 9 c0 3 -2 6 -5 6 c-3 0 -5 -3 -5 -6 c0 -2 1 -4 2 -5 c-0.2 2 1 2 1 2 c-1 -3 0 -4 2 -6 z" fill="#fff"/>
  </g>
  <text x="1288" y="480" font-size="17.5" font-weight="700" fill="#0f172a">Grafana</text>
  <text x="1288" y="501" font-size="12.5" fill="#64748b">dashboards</text>
  <text x="1288" y="520" font-size="11.5" fill="#98a3b3">auto-provisioned</text>

  <!-- ===== flow connectors ===== -->
  <g stroke="#8b98a9" stroke-width="2.4" fill="none">
    <path d="M772 292 H 896" marker-end="url(#arrow)"/>
    <path d="M772 486 H 896" marker-end="url(#arrow)"/>
    <path d="M1172 486 H 1194" marker-end="url(#arrow)"/>
  </g>
  <!-- connector label pills -->
  <g>
    <rect x="806" y="281" width="56" height="22" rx="11" fill="#ffffff" stroke="#e2e8f0" stroke-width="1"/>
    <text x="834" y="296" font-size="11.5" font-weight="600" fill="#64748b" text-anchor="middle">persist</text>
    <rect x="778" y="475" width="112" height="22" rx="11" fill="#ffffff" stroke="#e2e8f0" stroke-width="1"/>
    <text x="834" y="490" font-size="11.5" font-weight="600" fill="#64748b" text-anchor="middle">expose metrics</text>
    <rect x="1159" y="455" width="48" height="21" rx="10.5" fill="#ffffff" stroke="#e2e8f0" stroke-width="1"/>
    <text x="1183" y="469" font-size="11" font-weight="600" fill="#64748b" text-anchor="middle">query</text>
  </g>

  <!-- ===== footer ===== -->
  <line x1="52" y1="600" x2="1428" y2="600" stroke="#e2e8f0" stroke-width="1.2"/>
  <circle cx="712" cy="620" r="4" fill="#22c55e"/>
  <text x="722" y="624" font-size="12" fill="#94a3b8">healthcheck OK</text>
  <text x="52" y="624" font-size="12" fill="#94a3b8">Java 21 · Spring Boot 3.5 · PostgreSQL 16 · Mustang · Micrometer → Prometheus → Grafana</text>
  <text x="1428" y="624" font-size="12" fill="#94a3b8" text-anchor="end">output: Factur-X PDF (200) · RFC 7807 problem+json (400 / 422)</text>
</svg>
